<svg xmlns='http://www.w3.org/2000/svg' viewBox='-165 -115 910 910'><rect x='-165' y='-115' width='910' height='910' fill='#0B0B0C'/><g fill='#FFFFFF'><path d="M370 40 C460 75 530 120 530 190 L530 250 C515 285 440 300 330 315 C200 333 110 355 45 385 L45 345 C60 290 150 240 245 205 L245 285 C300 282 370 280 395 268 C410 258 395 246 370 238 Z"/><path d="M370 40 C460 75 530 120 530 190 L530 250 C515 285 440 300 330 315 C200 333 110 355 45 385 L45 345 C60 290 150 240 245 205 L245 285 C300 282 370 280 395 268 C410 258 395 246 370 238 Z" transform="rotate(180 290 335)"/></g></svg>
